<svg width="10" height="10" fill="none" xmlns="http://www.w3.org/2000/svg"><g clip-path="url(#clip0)" fill="#f0C52e"><path d="M9.9 2.5l-.3-.1h-2v1c0 .5-.3.9-.8.9a.9.9 0 01-1-.9v-1H4.2v1c0 .5-.5.9-1 .9a.9.9 0 01-.8-.9v-1h-2l-.3.1v.3l.6 6c0 .7.5 1.2 1.2 1.2H8c.7 0 1.2-.5 1.2-1.2l.7-6-.1-.3z"/><path d="M3.2 3.8c.2 0 .3-.2.3-.4V1.5c0-.5.6-.8 1-.8h1c.5 0 .9.3.9.8v2c0 .1.2.3.4.3s.3-.2.3-.4V1.5C7.1.6 6.4 0 5.5 0h-1c-.9 0-1.7.7-1.7 1.5v2c0 .1.2.3.4.3z"/></g><defs><clipPath id="clip0"><path fill="#fff" d="M0 0h10v10H0z"/></clipPath></defs></svg>
